<?xml version="1.0" encoding="UTF-8"?>
<svg width="305px" height="82px" viewBox="0 0 305 82" version="1.1" xmlns="http://www.w3.org/2000/svg" xmlns:xlink="http://www.w3.org/1999/xlink">
    <!-- Generator: Sketch 64 (93537) - https://sketch.com -->
    <title>logo-forbes</title>
    <desc>Created with Sketch.</desc>
    <defs>
        <polygon id="path-1" points="0 0.695375687 62.5497081 0.695375687 62.5497081 77.8861476 0 77.8861476"></polygon>
        <polygon id="path-3" points="0.293858025 0.525015835 41.8741527 0.525015835 41.8741527 57.788883 0.293858025 57.788883"></polygon>
    </defs>
    <g id="logo-forbes" stroke="none" stroke-width="1" fill="none" fill-rule="evenodd">
        <g id="Group-15">
            <path d="M147.905077,22 C145.335249,22 143.94849,22.2840291 141.86752,23.2338288 C138.078874,24.9628454 135.23053,27.7956833 132.689801,32.3591939 L131.895823,33.7843076 L131.997253,31.2512321 C132.052956,29.8592413 132.147734,27.2557796 132.207595,25.468798 L132.314013,22.2202674 L131.766958,22.2202674 C131.06859,22.2202674 109.158958,26.5817282 108.498003,26.8525081 C108.066511,27.0288876 108,27.2185164 108,28.2693411 C108,29.3483202 108.055703,29.4915769 108.498003,29.5843211 C108.772362,29.6414581 109.778344,29.8368833 110.733612,30.0198875 C112.670751,30.3900361 113.247736,30.6897986 114.046702,31.7422794 C115.519095,33.6849388 115.822552,37.1123332 115.806756,51.6267976 C115.793454,63.4922563 115.545699,69.4022137 114.982017,71.2504727 C114.287806,73.5160806 113.058179,74.6753829 110.917349,75.073686 C110.224801,75.2020373 109.30944,75.3825572 108.884599,75.4728172 L108.110575,75.6359476 L108.044895,77.1579459 C107.998337,78.2261601 108.064848,78.7345969 108.265214,78.8621202 C108.422346,78.962317 115.917331,79.0211102 124.918795,78.9929557 L141.283884,78.9399591 L141.347901,77.2333005 C141.382819,76.2942657 141.334598,75.5258139 141.237326,75.5258139 C139.965298,75.5233297 136.071066,74.9925348 135.455837,74.7366603 C133.609319,73.9682085 132.716406,72.318687 132.331472,68.9699595 C131.878364,65.0382687 131.610656,55.2628663 131.734533,47.2479473 C131.860073,39.1543613 131.862568,39.1212384 132.371378,38.5796786 C133.556941,37.3135549 136.559923,36.3264918 139.24864,36.3215234 C141.410255,36.3157269 143.632562,36.8705358 146.00535,38.0025117 C147.141861,38.5465557 148.190244,38.9456869 148.334074,38.890206 C148.630049,38.7784161 154,24.6473495 154,23.9807507 C154,22.9912034 150.952954,22 147.905077,22" id="Fill-1" fill="#020202"></path>
            <path d="M83.429007,74.5311333 C77.4365447,76.3090606 73.1453812,70.6018892 71.4836475,58.6418867 C70.9462218,54.7761106 70.9486946,44.2453737 71.4885932,39.8256953 C72.6615332,30.209062 75.629739,25.3236771 80.309135,25.3170587 C82.4159759,25.3129618 83.5864431,25.8305966 85.2358127,27.4898306 C89.1601748,31.4429782 91.0213825,38.9923692 90.9908844,50.8575819 C90.9694533,60.3258485 90.0264854,66.2868918 87.9171717,70.3191683 C86.8975464,72.2726628 84.9811124,74.0678996 83.429007,74.5311333 M107.832424,45.381203 C106.68586,35.6508219 102.5612,28.5292216 95.7510591,24.5216728 C88.1850603,20.0681998 76.6864566,19.8093824 68.5170902,23.9117209 C62.6169465,26.8716361 57.7974242,32.577159 55.6559638,39.1275477 C53.4477374,45.889771 53.4477374,54.7637467 55.6576124,61.6652698 C57.0737128,66.0857725 58.9942681,69.3127477 61.9567041,72.2471108 C65.5068465,75.763401 70.1573928,78.0128046 75.4747758,78.7892569 C77.3771971,79.0653838 83.3828477,79.0719778 85.3495623,78.7983237 C86.2809904,78.668915 87.8907949,78.3153078 88.9302028,78.0152774 C98.5667745,75.2243354 105.146943,67.816717 107.404626,57.2167424 C107.95524,54.6277439 108.183564,48.3518336 107.832424,45.381203" id="Fill-3" fill="#020202"></path>
            <g id="Group-7" transform="translate(0.000000, 1.000000)">
                <mask id="mask-2" fill="white">
                    <use xlink:href="#path-1"></use>
                </mask>
                <g id="Clip-6"></g>
                <path d="M29.0064004,6.80617224 L35.9101924,6.80617224 C43.8432441,6.80617224 45.1413648,6.97281428 47.9520353,8.3513234 C52.0237139,10.3502029 55.0009793,14.3091887 57.5963961,21.1794604 C58.6528717,23.9777266 58.6405008,23.9686521 60.9893241,23.2534112 L62.5497081,22.7790589 L62.4070303,12.6543178 C62.3278564,7.08500892 62.2008484,2.13194562 62.1216746,1.64934368 L61.9789968,0.771585627 L31.7115059,0.709713584 C15.0652106,0.675065239 1.11907244,0.705588781 0.721553891,0.77571043 L-8.24727273e-05,0.90522924 L0.0634215273,2.70281834 L0.126925527,4.50205735 L2.4303888,4.77841914 C5.42084989,5.13645203 7.20638444,5.97708686 8.26615898,7.52141306 C10.6553939,11.0060465 11.087551,15.7479199 11.0834273,38.2957424 C11.078479,62.305395 10.5786943,68.1353914 8.27028262,71.1638217 C7.07937644,72.7246471 6.11444553,73.2377725 3.41841207,73.7376987 C-0.0990497455,74.3894175 0.0180615273,74.3085714 0.0180615273,76.1276094 C0.0180615273,77.1390111 0.109606255,77.685135 0.291870982,77.7602064 C0.686915345,77.9210737 39.4029124,77.9309733 39.8169255,77.7717559 C40.3464004,77.5696405 40.3150608,74.7078523 39.7798128,74.4314905 C39.5695073,74.3217707 38.2598404,74.0627331 36.8734739,73.8540181 C35.4846332,73.646128 33.9539393,73.3037694 33.4706492,73.0925795 C30.9346128,71.9887822 29.5243292,68.9364281 28.9932048,63.4116671 C28.6138303,59.4477316 28.3177532,52.1468305 28.3177532,46.7482885 L28.3177532,41.7968751 L30.6756484,41.8678217 C35.6974128,42.0196144 38.2953037,42.2852517 39.3435321,42.7488796 C41.6164804,43.7536816 43.4547975,46.5577226 44.409007,50.4746354 L44.9178637,52.5593107 L46.7083466,52.6236577 L48.500479,52.6871796 L48.500479,26.3189647 L46.7099961,26.3824867 L44.9178637,26.4460087 L44.3958113,28.5290341 C43.3822215,32.5647413 41.7278186,35.0437478 39.2956979,36.169819 C38.3060252,36.6284971 37.6041823,36.7530661 35.2363903,36.8957843 C33.6636353,36.9881799 31.463263,37.0715009 30.3465823,37.0781006 L28.3177532,37.0888251 L28.315279,30.560912 C28.3128048,24.0173247 28.6641386,10.1200389 28.8876397,7.9578172 L29.0064004,6.80617224 Z" id="Fill-5" fill="#020202" mask="url(#mask-2)"></path>
            </g>
            <g id="Group-10" transform="translate(263.000000, 22.000000)">
                <mask id="mask-4" fill="white">
                    <use xlink:href="#path-3"></use>
                </mask>
                <g id="Clip-9"></g>
                <path d="M40.4404967,32.2850838 C38.6037814,28.6387228 35.2234699,26.1445304 28.1401696,23.2070709 C22.3566101,20.810658 19.4533356,19.1475915 17.6806631,17.2229648 C16.2429838,15.6625667 15.8226002,14.401211 15.9621807,12.0642807 C16.0910874,9.90987208 16.6231355,8.62651598 17.9836349,7.18100886 C19.7308544,5.3280871 22.1341024,4.68029783 25.0102819,5.28245666 C29.7297453,6.27328905 32.7570002,9.5179392 35.3646925,16.3714682 C36.2949556,18.815956 36.4041568,18.8941796 38.0750176,18.2789835 L39.1317241,17.8886803 L39.0972396,15.0710007 C39.0758919,13.5211954 38.9962489,10.2675821 38.9182481,7.84020574 L38.7786676,3.42709042 L37.9904482,3.09545491 C33.6741262,1.28164496 25.4388762,0.15229159 20.0715951,0.637929834 C13.9784953,1.19038408 9.50288738,3.11093666 6.05935411,6.65218466 C2.63470527,10.1722471 1.0878248,14.3034315 1.36370157,19.2038147 C1.5911357,23.2575903 2.79809657,26.170605 5.31711423,28.728354 C7.65139298,31.0970627 9.61044648,32.2198974 15.2297936,34.3979361 C24.3008845,37.9139244 26.7033114,39.996628 26.6811427,44.3315197 C26.6663636,47.9917328 24.7089523,50.6708914 21.1447229,51.9200247 C19.871256,52.3665511 16.6469463,52.362477 14.9268217,51.913506 C10.4200134,50.7344481 6.96744848,46.8591201 4.02558399,39.6715111 L3.27184924,37.8291821 L2.38510248,37.8699236 C1.90149706,37.891924 1.2298685,38.0394081 0.898159523,38.197485 L0.293858025,38.48349 L0.35051129,41.6246569 C0.380890577,43.3520949 0.46792313,46.9935669 0.544281879,49.718356 L0.682220265,54.6684438 L1.68884205,55.097044 C3.75052828,55.9770596 9.94215545,57.3239724 13.8348095,57.7370908 C14.3151307,57.7876102 16.9688025,57.8039068 19.7308544,57.7737581 C24.5250344,57.7224239 24.8707014,57.6922752 27.28216,57.0656715 C34.3999449,55.220898 39.0052806,51.2844578 41.0472614,45.3068703 C41.6745526,43.4726896 41.7615852,42.9120871 41.851902,40.1807794 C41.9709559,36.5417519 41.6326784,34.651348 40.4404967,32.2850838" id="Fill-8" fill="#020202" mask="url(#mask-4)"></path>
            </g>
            <path d="M230.714949,43.1203656 L226.607332,43.185503 L226.612273,42.297491 C226.614743,41.8101976 226.752268,40.5239407 226.921085,39.4380431 C228.289742,30.6049214 231.580447,25.304059 235.697945,25.299934 C239.487691,25.2958138 241.822313,30.5175219 242.306531,40.0762244 L242.444879,42.7872581 L238.632898,42.9208309 C236.537092,42.993389 232.972985,43.0824375 230.714949,43.1203656 M247.044948,23.1264921 C241.027636,20.1062621 231.732794,20.3255854 224.935627,23.6418194 C218.49586,26.7865525 214.062137,32.0313473 211.589167,39.4330959 C210.298743,43.2885684 209.893581,46.3928999 210.022871,51.3903376 C210.106868,54.5507367 210.24851,56.1832935 210.577086,57.6435248 C213.115936,68.9914435 220.887303,76.7073356 231.755852,78.6705264 C234.147295,79.1025768 239.579923,79.110822 241.997718,78.6886659 C245.450653,78.0826411 249.432274,76.5449045 251.943124,74.8472103 C255.007367,72.7751825 258.150665,69.6584831 258.150665,68.6913169 C258.150665,68.100958 257.097409,66.7429676 256.639543,66.7429676 C256.440256,66.7429676 255.587934,67.1882103 254.749612,67.7332205 C251.750426,69.6716755 248.884646,70.4698144 244.898908,70.4698144 C239.4004,70.4698144 235.914526,69.0969826 232.413005,65.5573026 C230.861531,63.9890587 230.224143,63.1422729 229.420407,61.5888704 C227.656471,58.174518 226.702034,54.2440139 226.559569,49.8023051 L226.497806,47.8836386 L242.707575,47.8292201 L258.917344,47.7723279 L258.989812,46.6757115 C259.02934,46.0721602 258.950284,44.4931975 258.814406,43.1665389 C257.803149,33.309359 253.818233,26.5235295 247.044948,23.1264921" id="Fill-11" fill="#020202"></path>
            <path d="M173.000437,74.8274789 C172.7202,74.0885935 172.388189,48.3209977 172.523787,38.027018 L172.631444,29.9918457 L174.080294,29.5628954 C175.046742,29.2769286 176.183304,29.1339452 177.505595,29.1339452 C179.354666,29.1339452 179.595456,29.1893203 181.154428,29.9629184 C184.911741,31.8324473 187.487291,36.4732097 188.687954,43.5322929 C189.129266,46.1415337 189.183505,53.2692158 188.783284,56.3950152 C187.802044,64.0747952 185.306209,70.2701924 181.987743,73.2736707 C180.662165,74.4712601 179.426985,75.1068338 177.840893,75.410157 C176.687895,75.6283514 176.342735,75.6349633 174.259449,75.4696646 C173.37436,75.4010656 173.179591,75.3002334 173.000437,74.8274789 M188.577832,22.9435069 C187.288413,22.6748965 186.125553,22.6203479 183.615747,22.7079562 C179.844464,22.8401952 177.248369,23.4096494 174.432029,24.717989 C173.49681,25.1510718 172.680753,25.5064641 172.619939,25.5064641 C172.55666,25.5064641 172.5657,19.7689444 172.640484,12.7553184 C172.744032,2.87293259 172.716091,0.00417276409 172.513104,2.01097998e-05 C171.800595,-0.0107041235 149.474502,4.27136002 149.229603,4.46723904 C149.047983,4.61187545 148.96909,5.08710936 149.011002,5.80615893 C149.082499,7.05499099 148.936217,6.95581174 151.65805,7.57154959 C152.478215,7.7558577 153.434801,8.11455599 153.789823,8.36746308 C154.6971,9.01791366 155.453165,10.4254325 155.975014,12.4453833 C156.388384,14.0372102 156.443445,15.1761186 156.635749,25.9461588 C156.830517,36.9410052 156.79107,48.2457868 156.49111,68.9535878 L156.367017,77.5565613 L157.96708,77.9210451 C160.282116,78.4508276 166.910008,79.5616352 169.078763,79.780656 C172.259987,80.1062946 179.67435,80.0600109 182.035408,79.7037921 C192.288301,78.1499838 200.015773,72.169475 203.617763,63.0020063 C204.571062,60.5729411 205.489023,56.8314039 205.810351,54.0519054 C206.186739,50.7913875 205.977178,44.2844022 205.408486,41.66607 C203.230691,31.6274768 196.998911,24.6956737 188.577832,22.9435069" id="Fill-13" fill="#020202"></path>
        </g>
    </g>
</svg>