<?xml version="1.0" encoding="UTF-8"?>
<svg width="305px" height="79px" viewBox="0 0 305 79" version="1.1" xmlns="http://www.w3.org/2000/svg" xmlns:xlink="http://www.w3.org/1999/xlink">
    <!-- Generator: Sketch 64 (93537) - https://sketch.com -->
    <title>logo-vogue</title>
    <desc>Created with Sketch.</desc>
    <defs>
        <polygon id="path-1" points="0.267624 0.0481033178 64.662624 0.0481033178 64.662624 78.3 0.267624 78.3"></polygon>
        <polygon id="path-3" points="0 0.0548958333 64.705716 0.0548958333 64.705716 75.7869981 0 75.7869981"></polygon>
        <polygon id="path-5" points="0.041755814 0.612587755 62.4488233 0.612587755 62.4488233 78.5657535 0.041755814 78.5657535"></polygon>
    </defs>
    <g id="logo-vogue" stroke="none" stroke-width="1" fill="none" fill-rule="evenodd">
        <g id="Group-12">
            <g id="Group-3" transform="translate(57.600000, 0.900000)">
                <mask id="mask-2" fill="white">
                    <use xlink:href="#path-1"></use>
                </mask>
                <g id="Clip-2"></g>
                <path d="M32.473224,77.1706764 C17.698824,77.1706764 13.827024,50.0414113 13.827024,39.1661441 C13.827024,28.2731253 17.666424,1.17774971 32.473224,1.17774971 C47.215224,1.17774971 51.103224,28.305401 51.103224,39.1661441 C51.103224,50.0107495 47.215224,77.1706764 32.473224,77.1706764 M55.331424,11.7318746 C49.920624,5.06696086 41.496624,0.0481033178 32.716224,0.0481033178 C23.158224,0.0481033178 14.572224,5.34130356 8.853624,12.7162807 C3.070224,20.2364981 0.267624,29.7255278 0.267624,39.1661441 C0.267624,48.9763162 3.313224,58.9026804 9.566424,66.5826621 C15.058224,73.3460164 23.547024,78.3003228 32.408424,78.3003228 C41.885424,78.3003228 50.422824,72.9425713 56.076624,65.5998697 C61.843824,58.0796523 64.662624,48.5906226 64.662624,39.1822819 C64.662624,29.3704961 61.568424,19.4134701 55.331424,11.7318746" id="Fill-1" fill="#231F20" mask="url(#mask-2)"></path>
            </g>
            <g id="Group-6" transform="translate(0.000000, 2.700000)">
                <mask id="mask-4" fill="white">
                    <use xlink:href="#path-3"></use>
                </mask>
                <g id="Clip-5"></g>
                <polygon id="Fill-4" fill="#231F20" mask="url(#mask-4)" points="-0.000324 0.0548958333 26.711856 0.0548958333 26.711856 0.817964015 20.149236 0.817964015 40.081716 55.0521496 56.910276 0.817964015 50.294196 0.817964015 50.294196 0.0548958333 64.705716 0.0548958333 64.705716 0.817964015 58.337496 0.817964015 34.619076 75.7869981 7.027236 0.817964015 -0.000324 0.817964015"></polygon>
            </g>
            <g id="Group-9" transform="translate(128.700000, 0.000000)">
                <mask id="mask-6" fill="white">
                    <use xlink:href="#path-5"></use>
                </mask>
                <g id="Clip-8"></g>
                <path d="M51.7427791,1.13239837 L51.7427791,27.2910269 L51.1416419,27.2910269 C50.0231721,22.1414106 48.4373302,17.1275657 45.6798349,12.5808392 C42.4017837,7.26797388 37.1865558,1.29726367 30.385486,1.29726367 C14.7639767,1.29726367 13.3441326,29.3728555 13.3441326,40.0826351 C13.3441326,49.6690678 14.1080442,59.5561371 17.5762674,68.5412963 C20.008214,74.8417371 23.5296209,77.9370024 30.0583256,77.9370024 C35.2477674,77.9370024 40.7643698,75.3072392 43.5218651,70.7879902 C44.232593,69.6080718 44.2857767,68.2939984 44.2857767,66.9524473 L44.2857767,66.7617208 L44.2857767,46.7386678 L37.4589209,46.7386678 L37.4589209,45.9434351 L62.4488233,45.9434351 L62.4488233,46.7386678 L56.6050605,46.7386678 L56.6050605,76.9769045 L56.0845047,76.9769045 C54.6098651,74.5103902 52.2891209,72.89568 49.3108326,72.89568 C47.1544744,72.89568 45.0513,73.6634351 43.167307,74.7043494 L41.473486,75.6353535 C37.6507047,77.3341127 33.989086,78.5657535 29.7569512,78.5657535 C10.3658442,78.5657535 0.041755814,57.8315167 0.041755814,40.6305698 C0.041755814,28.0571657 4.82184419,14.6077127 14.9815465,6.74751673 C19.5440651,3.21422694 25.0590558,0.611941224 30.9318279,0.611941224 C33.226786,0.611941224 35.4927349,1.32474122 37.6216953,2.17331265 L39.1801395,2.77620245 C40.9545419,3.43243102 42.8933302,4.06279837 44.8047209,4.06279837 C47.1818721,4.06279837 49.3108326,2.50142694 51.1416419,1.13239837 L51.7427791,1.13239837 Z" id="Fill-7" fill="#231F20" mask="url(#mask-6)"></path>
            </g>
            <path d="M187.2,1.8 L214.28629,1.8 L214.28629,2.56477719 L207.097124,2.56477719 L207.097124,60.5039099 C207.097124,69.581202 216.588789,75.104055 224.888264,75.104055 C233.823137,75.104055 241.344741,68.9793836 241.344741,59.9843777 L241.344741,2.56477719 L232.852026,2.56477719 L232.852026,1.8 L302.757254,1.8 L302.757254,28.6769165 L302.229939,28.6769165 C301.425866,21.5680382 300.038799,14.2687724 295.07025,8.71687724 C290.047659,3.11173809 283.220407,2.56477719 276.199916,2.56477719 L268.62427,2.56477719 L268.62427,37.126575 C270.176737,37.2895339 271.760319,37.3992488 273.342263,37.3992488 C282.86013,37.3992488 285.329666,30.9470463 285.74726,22.9620625 L286.439975,22.9620625 L286.439975,53.2853167 L285.74726,53.2853167 C284.553433,46.0392949 281.306026,38.2737408 272.674113,38.2737408 C271.314886,38.2737408 269.983498,38.356027 268.62427,38.4657418 L268.62427,75.4315861 L279.973,75.4315861 C285.856981,75.4315861 291.713122,72.9162114 295.874323,68.8696688 C299.427966,65.4249445 301.897502,60.9395424 302.757254,56.1007939 C303.230527,53.3950316 303.451606,50.6327984 303.590804,47.8979939 L304.2,47.8979939 L304.2,76.1963633 L249.557422,76.1963633 L249.557422,75.4315861 L255.913038,75.4315861 L255.913038,2.56477719 L242.481251,2.56477719 L242.481251,60.202194 C242.481251,72.1240055 230.991686,77.4 220.224312,77.4 C208.042032,77.4 194.608608,71.5754311 194.608608,57.8513915 L194.608608,2.56477719 L187.2,2.56477719 L187.2,1.8 Z" id="Fill-10" fill="#231F20"></path>
        </g>
    </g>
</svg>